# xmcd
#
# Track frame offsets:
#	150
#	12650
#	26024
#	39750
#	51953
#	63976
#	77827
#	89697
#	103010
#	114982
#	129298
#	141266
#
# Disc length: 2061 seconds
#
# Revision: 0
# Processed by: cddbd v1.5.1PL2 Copyright (c) Steve Scherf et al.
# Submitted via: audiograbber 1.83.01
#
DISCID=9d080b0c
DTITLE=Nelson Riddle - An Orchestral Portrait of Nat King Cole
DYEAR=1900
DGENRE=
TTITLE0=Straighten Up And Fly Right
TTITLE1=Too Young
TTITLE2=It's Only A Paper Moon
TTITLE3=Nature Boy
TTITLE4=Walkin' My Baby Back Home
TTITLE5=Mona Lisa
TTITLE6=Night Lights
TTITLE7=Pretend
TTITLE8=Ballerina
TTITLE9=Sweet Lorraine
TTITLE10=Ramblin' Rose
TTITLE11=The Christmas Song (Chestnuts Roasting On An Open Fire)
EXTD=
EXTT0=
EXTT1=
EXTT2=
EXTT3=
EXTT4=
EXTT5=
EXTT6=
EXTT7=
EXTT8=
EXTT9=
EXTT10=
EXTT11=
PLAYORDER=
